<mxfile host="Electron" agent="Mozilla/5.0 (Windows NT 10.0; Win64; x64) AppleWebKit/537.36 (KHTML, like Gecko) draw.io/27.0.5 Chrome/134.0.6998.205 Electron/35.3.0 Safari/537.36" version="27.0.5">
  <diagram name="第 1 页" id="1ISZXP66ttom4p50y0LG">
    <mxGraphModel dx="856" dy="521" grid="1" gridSize="10" guides="1" tooltips="1" connect="1" arrows="1" fold="1" page="1" pageScale="1" pageWidth="827" pageHeight="1169" math="0" shadow="0">
      <root>
        <mxCell id="0" />
        <mxCell id="1" parent="0" />
        <mxCell id="TqxyXy0SHhE-zwgsd13N-1" value="" style="shape=umlLifeline;perimeter=lifelinePerimeter;whiteSpace=wrap;html=1;container=1;dropTarget=0;collapsible=0;recursiveResize=0;outlineConnect=0;portConstraint=eastwest;newEdgeStyle={&quot;curved&quot;:0,&quot;rounded&quot;:0};participant=umlActor;" parent="1" vertex="1">
          <mxGeometry x="130" y="80" width="20" height="280" as="geometry" />
        </mxCell>
        <mxCell id="TqxyXy0SHhE-zwgsd13N-10" value="" style="html=1;points=[[0,0,0,0,5],[0,1,0,0,-5],[1,0,0,0,5],[1,1,0,0,-5]];perimeter=orthogonalPerimeter;outlineConnect=0;targetShapes=umlLifeline;portConstraint=eastwest;newEdgeStyle={&quot;curved&quot;:0,&quot;rounded&quot;:0};" parent="TqxyXy0SHhE-zwgsd13N-1" vertex="1">
          <mxGeometry x="5" y="90" width="10" height="140" as="geometry" />
        </mxCell>
        <mxCell id="TqxyXy0SHhE-zwgsd13N-3" value="" style="shape=umlLifeline;perimeter=lifelinePerimeter;whiteSpace=wrap;html=1;container=1;dropTarget=0;collapsible=0;recursiveResize=0;outlineConnect=0;portConstraint=eastwest;newEdgeStyle={&quot;curved&quot;:0,&quot;rounded&quot;:0};participant=umlBoundary;" parent="1" vertex="1">
          <mxGeometry x="275" y="80" width="50" height="280" as="geometry" />
        </mxCell>
        <mxCell id="Vx5Z0k7N1KheZDOBe14Z-10" value="" style="html=1;points=[[0,0,0,0,5],[0,1,0,0,-5],[1,0,0,0,5],[1,1,0,0,-5]];perimeter=orthogonalPerimeter;outlineConnect=0;targetShapes=umlLifeline;portConstraint=eastwest;newEdgeStyle={&quot;curved&quot;:0,&quot;rounded&quot;:0};" parent="TqxyXy0SHhE-zwgsd13N-3" vertex="1">
          <mxGeometry x="20" y="170" width="10" height="20" as="geometry" />
        </mxCell>
        <mxCell id="TqxyXy0SHhE-zwgsd13N-4" value="API Server" style="shape=umlLifeline;perimeter=lifelinePerimeter;whiteSpace=wrap;html=1;container=1;dropTarget=0;collapsible=0;recursiveResize=0;outlineConnect=0;portConstraint=eastwest;newEdgeStyle={&quot;curved&quot;:0,&quot;rounded&quot;:0};" parent="1" vertex="1">
          <mxGeometry x="410" y="80" width="100" height="280" as="geometry" />
        </mxCell>
        <mxCell id="Vx5Z0k7N1KheZDOBe14Z-7" value="" style="html=1;points=[[0,0,0,0,5],[0,1,0,0,-5],[1,0,0,0,5],[1,1,0,0,-5]];perimeter=orthogonalPerimeter;outlineConnect=0;targetShapes=umlLifeline;portConstraint=eastwest;newEdgeStyle={&quot;curved&quot;:0,&quot;rounded&quot;:0};" parent="TqxyXy0SHhE-zwgsd13N-4" vertex="1">
          <mxGeometry x="45" y="170" width="10" height="20" as="geometry" />
        </mxCell>
        <mxCell id="Vx5Z0k7N1KheZDOBe14Z-6" value="" style="html=1;points=[[0,0,0,0,5],[0,1,0,0,-5],[1,0,0,0,5],[1,1,0,0,-5]];perimeter=orthogonalPerimeter;outlineConnect=0;targetShapes=umlLifeline;portConstraint=eastwest;newEdgeStyle={&quot;curved&quot;:0,&quot;rounded&quot;:0};" parent="TqxyXy0SHhE-zwgsd13N-4" vertex="1">
          <mxGeometry x="-115" y="210" width="10" height="20" as="geometry" />
        </mxCell>
        <mxCell id="Vx5Z0k7N1KheZDOBe14Z-12" value="回傳路線規劃()" style="html=1;verticalAlign=bottom;endArrow=open;dashed=1;endSize=8;curved=0;rounded=0;" parent="TqxyXy0SHhE-zwgsd13N-4" source="5Fh_vX3bl82Dy5waM5wk-1" target="Vx5Z0k7N1KheZDOBe14Z-6" edge="1">
          <mxGeometry relative="1" as="geometry">
            <mxPoint x="-25" y="219.76" as="sourcePoint" />
            <mxPoint x="-90" y="220" as="targetPoint" />
            <Array as="points">
              <mxPoint x="-30" y="220" />
            </Array>
          </mxGeometry>
        </mxCell>
        <mxCell id="Vx5Z0k7N1KheZDOBe14Z-13" value="顯示路線規劃()" style="html=1;verticalAlign=bottom;endArrow=open;dashed=1;endSize=8;curved=0;rounded=0;" parent="TqxyXy0SHhE-zwgsd13N-4" source="Vx5Z0k7N1KheZDOBe14Z-6" edge="1">
          <mxGeometry relative="1" as="geometry">
            <mxPoint x="-160" y="219.76" as="sourcePoint" />
            <mxPoint x="-265" y="220" as="targetPoint" />
          </mxGeometry>
        </mxCell>
        <mxCell id="5Fh_vX3bl82Dy5waM5wk-1" value="" style="html=1;points=[[0,0,0,0,5],[0,1,0,0,-5],[1,0,0,0,5],[1,1,0,0,-5]];perimeter=orthogonalPerimeter;outlineConnect=0;targetShapes=umlLifeline;portConstraint=eastwest;newEdgeStyle={&quot;curved&quot;:0,&quot;rounded&quot;:0};" parent="TqxyXy0SHhE-zwgsd13N-4" vertex="1">
          <mxGeometry x="45" y="210" width="10" height="20" as="geometry" />
        </mxCell>
        <mxCell id="5Fh_vX3bl82Dy5waM5wk-2" value="生成&lt;span style=&quot;text-align: center;&quot;&gt;路線規劃&lt;/span&gt;()" style="html=1;align=left;spacingLeft=2;endArrow=block;rounded=0;edgeStyle=orthogonalEdgeStyle;curved=0;rounded=0;" parent="TqxyXy0SHhE-zwgsd13N-4" source="Vx5Z0k7N1KheZDOBe14Z-7" target="5Fh_vX3bl82Dy5waM5wk-1" edge="1">
          <mxGeometry relative="1" as="geometry">
            <mxPoint x="60" y="180" as="sourcePoint" />
            <Array as="points">
              <mxPoint x="80" y="180" />
              <mxPoint x="80" y="220" />
            </Array>
          </mxGeometry>
        </mxCell>
        <mxCell id="TqxyXy0SHhE-zwgsd13N-7" value="進入AI對話介面()" style="html=1;verticalAlign=bottom;endArrow=block;curved=0;rounded=0;" parent="1" target="waq_90hb6bEdvXV73J_--1" edge="1">
          <mxGeometry relative="1" as="geometry">
            <mxPoint x="145" y="180" as="sourcePoint" />
            <mxPoint x="250" y="180" as="targetPoint" />
          </mxGeometry>
        </mxCell>
        <mxCell id="TqxyXy0SHhE-zwgsd13N-49" value="路線規劃" style="shape=umlFrame;whiteSpace=wrap;html=1;pointerEvents=0;width=80;height=30;" parent="1" vertex="1">
          <mxGeometry x="40" y="40" width="560" height="320" as="geometry" />
        </mxCell>
        <mxCell id="TqxyXy0SHhE-zwgsd13N-50" value="使用者" style="text;html=1;align=center;verticalAlign=middle;whiteSpace=wrap;rounded=0;" parent="1" vertex="1">
          <mxGeometry x="110" y="120" width="60" height="30" as="geometry" />
        </mxCell>
        <mxCell id="TqxyXy0SHhE-zwgsd13N-52" value="AI對話&lt;span style=&quot;background-color: transparent; color: light-dark(rgb(0, 0, 0), rgb(255, 255, 255));&quot;&gt;介面&lt;/span&gt;" style="text;html=1;align=center;verticalAlign=middle;whiteSpace=wrap;rounded=0;" parent="1" vertex="1">
          <mxGeometry x="250" y="120" width="100" height="30" as="geometry" />
        </mxCell>
        <mxCell id="waq_90hb6bEdvXV73J_--1" value="" style="html=1;points=[[0,0,0,0,5],[0,1,0,0,-5],[1,0,0,0,5],[1,1,0,0,-5]];perimeter=orthogonalPerimeter;outlineConnect=0;targetShapes=umlLifeline;portConstraint=eastwest;newEdgeStyle={&quot;curved&quot;:0,&quot;rounded&quot;:0};" parent="1" vertex="1">
          <mxGeometry x="295" y="170" width="10" height="60" as="geometry" />
        </mxCell>
        <mxCell id="waq_90hb6bEdvXV73J_--5" value="顯示AI對話介面()" style="html=1;verticalAlign=bottom;endArrow=open;dashed=1;endSize=8;curved=0;rounded=0;" parent="1" target="TqxyXy0SHhE-zwgsd13N-10" edge="1">
          <mxGeometry relative="1" as="geometry">
            <mxPoint x="295" y="220" as="sourcePoint" />
            <mxPoint x="180" y="215" as="targetPoint" />
            <Array as="points" />
          </mxGeometry>
        </mxCell>
        <mxCell id="Vx5Z0k7N1KheZDOBe14Z-8" value="輸入出發地與目的地&lt;div&gt;要求提供路線規劃()&lt;/div&gt;" style="html=1;verticalAlign=bottom;endArrow=block;curved=0;rounded=0;" parent="1" source="TqxyXy0SHhE-zwgsd13N-10" edge="1">
          <mxGeometry width="80" relative="1" as="geometry">
            <mxPoint x="180" y="259.76" as="sourcePoint" />
            <mxPoint x="295" y="260" as="targetPoint" />
            <Array as="points">
              <mxPoint x="220" y="260" />
            </Array>
          </mxGeometry>
        </mxCell>
        <mxCell id="Vx5Z0k7N1KheZDOBe14Z-9" value="分析問題()" style="html=1;verticalAlign=bottom;endArrow=block;curved=0;rounded=0;" parent="1" source="Vx5Z0k7N1KheZDOBe14Z-10" target="Vx5Z0k7N1KheZDOBe14Z-7" edge="1">
          <mxGeometry width="80" relative="1" as="geometry">
            <mxPoint x="334" y="340" as="sourcePoint" />
            <mxPoint x="414" y="340" as="targetPoint" />
          </mxGeometry>
        </mxCell>
      </root>
    </mxGraphModel>
  </diagram>
</mxfile>
